<?xml version="1.0" standalone="no"?>
<svg xmlns:xlink="http://www.w3.org/1999/xlink" id="wave" style="transform:rotate(180deg); transition: 0.3s" viewBox="0 0 1440 240" version="1.1" xmlns="http://www.w3.org/2000/svg"><path style="transform:translate(0, 0px); opacity:1" fill="#F9FAFF" d="M0,0L40,28C80,56,160,112,240,116C320,120,400,72,480,80C560,88,640,152,720,168C800,184,880,152,960,120C1040,88,1120,56,1200,72C1280,88,1360,152,1440,160C1520,168,1600,120,1680,104C1760,88,1840,104,1920,112C2000,120,2080,120,2160,120C2240,120,2320,120,2400,104C2480,88,2560,56,2640,64C2720,72,2800,120,2880,128C2960,136,3040,104,3120,108C3200,112,3280,152,3360,140C3440,128,3520,64,3600,44C3680,24,3760,48,3840,64C3920,80,4000,88,4080,88C4160,88,4240,80,4320,100C4400,120,4480,168,4560,172C4640,176,4720,136,4800,116C4880,96,4960,96,5040,108C5120,120,5200,144,5280,152C5360,160,5440,152,5520,128C5600,104,5680,64,5720,44L5760,24L5760,240L5720,240C5680,240,5600,240,5520,240C5440,240,5360,240,5280,240C5200,240,5120,240,5040,240C4960,240,4880,240,4800,240C4720,240,4640,240,4560,240C4480,240,4400,240,4320,240C4240,240,4160,240,4080,240C4000,240,3920,240,3840,240C3760,240,3680,240,3600,240C3520,240,3440,240,3360,240C3280,240,3200,240,3120,240C3040,240,2960,240,2880,240C2800,240,2720,240,2640,240C2560,240,2480,240,2400,240C2320,240,2240,240,2160,240C2080,240,2000,240,1920,240C1840,240,1760,240,1680,240C1600,240,1520,240,1440,240C1360,240,1280,240,1200,240C1120,240,1040,240,960,240C880,240,800,240,720,240C640,240,560,240,480,240C400,240,320,240,240,240C160,240,80,240,40,240L0,240Z"/></svg>